<?xml version="1.0" standalone="no"?>
<!DOCTYPE svg PUBLIC "-//W3C//DTD SVG 20010904//EN"
 "http://www.w3.org/TR/2001/REC-SVG-20010904/DTD/svg10.dtd">
<svg version="1.0" xmlns="http://www.w3.org/2000/svg"
 width="222.000000pt" height="82.000000pt" viewBox="0 0 222.000000 82.000000"
 preserveAspectRatio="xMidYMid meet">

<g transform="translate(0.000000,82.000000) scale(0.100000,-0.100000)"
fill="#000000" stroke="none">
<path d="M359 681 c8 -5 20 -7 27 -4 6 2 15 0 19 -6 3 -6 1 -11 -4 -11 -6 0
-11 -10 -12 -22 0 -21 -1 -21 -8 -4 -5 13 -10 16 -15 8 -10 -16 -34 -4 -31 16
1 9 0 11 -2 5 -3 -7 -12 -13 -21 -13 -11 0 -13 -3 -6 -8 15 -10 27 -75 13 -66
-7 4 -9 -1 -4 -15 4 -12 2 -21 -4 -21 -6 0 -11 6 -12 13 -3 44 -8 60 -22 73
-9 8 -12 9 -7 2 13 -16 13 -51 0 -43 -6 4 -8 10 -5 15 3 4 -4 6 -15 3 -16 -4
-18 -8 -9 -19 6 -8 14 -12 18 -10 11 7 25 -7 38 -36 14 -30 7 -37 -11 -12 -10
13 -12 13 -13 -6 -1 -11 2 -18 8 -15 5 4 9 -3 9 -14 0 -24 10 -27 28 -9 9 9
12 5 13 -17 1 -23 3 -25 6 -8 2 12 11 24 19 27 9 3 12 1 9 -4 -9 -15 23 -24
38 -12 14 12 35 11 54 -1 14 -9 27 9 17 25 -4 7 -3 8 4 4 14 -8 15 -3 16 81 1
33 -2 59 -6 56 -5 -2 -8 -12 -8 -21 0 -13 -2 -13 -16 4 -14 18 -15 18 -8 -6 6
-25 6 -25 -11 -5 -16 20 -16 20 -12 -3 3 -12 1 -20 -3 -17 -5 3 -11 1 -15 -5
-3 -5 -11 -10 -18 -10 -6 0 -3 6 8 13 10 8 15 19 11 25 -3 6 2 15 11 21 17 9
16 11 -6 35 -14 15 -35 26 -50 26 -19 0 -22 -3 -12 -9z m66 -31 c3 -5 1 -10
-4 -10 -6 0 -11 5 -11 10 0 6 2 10 4 10 3 0 8 -4 11 -10z m-54 -40 c16 0 29
-5 29 -11 0 -7 -10 -9 -27 -4 -23 5 -25 4 -13 -10 11 -13 10 -15 -4 -9 -9 3
-16 10 -16 14 0 5 -2 14 -3 22 -2 7 -2 10 0 6 3 -5 18 -8 34 -8z m103 -49 c15
-16 15 -19 2 -24 -9 -4 -15 -3 -15 1 3 21 -2 32 -13 26 -7 -4 -8 -3 -4 4 9 15
10 15 30 -7z m-54 -25 c0 -20 -4 -24 -21 -21 -25 5 -38 15 -21 15 7 0 12 7 12
15 0 8 7 15 15 15 9 0 15 -9 15 -24z m-67 -21 c-3 -9 -8 -14 -10 -11 -3 3 -2
9 2 15 9 16 15 13 8 -4z"/>
<path d="M396 533 c-6 -14 -5 -15 5 -6 7 7 10 15 7 18 -3 3 -9 -2 -12 -12z"/>
<path d="M630 535 l0 -125 64 0 c54 0 69 4 95 25 55 47 51 160 -6 205 -20 15
-41 20 -89 20 l-64 0 0 -125z m130 75 c15 -15 20 -33 20 -75 0 -67 -22 -95
-75 -95 l-35 0 0 88 c0 49 3 92 7 95 14 14 64 6 83 -13z"/>
<path d="M870 535 l0 -125 25 0 c23 0 25 4 25 45 0 43 1 45 29 45 41 0 90 19
101 40 17 32 11 75 -13 98 -19 18 -35 22 -95 22 l-72 0 0 -125z m134 79 c36
-35 12 -74 -46 -74 l-38 0 0 45 c0 45 0 45 34 45 19 0 42 -7 50 -16z"/>
<path d="M1110 535 c0 -118 1 -125 20 -125 19 0 20 7 20 125 0 118 -1 125 -20
125 -19 0 -20 -7 -20 -125z"/>
<path d="M1210 535 c0 -118 1 -125 20 -125 19 0 20 7 20 125 0 118 -1 125 -20
125 -19 0 -20 -7 -20 -125z"/>
<path d="M1280 645 c0 -11 11 -15 40 -15 l40 0 0 -110 c0 -103 1 -110 20 -110
18 0 20 8 22 108 l3 107 38 3 c24 2 37 8 37 18 0 11 -20 14 -100 14 -82 0
-100 -3 -100 -15z"/>
<path d="M505 590 c4 -6 11 -8 16 -5 14 9 11 15 -7 15 -8 0 -12 -5 -9 -10z"/>
<path d="M426 431 c-4 -7 -5 -15 -2 -18 9 -9 19 4 14 18 -4 11 -6 11 -12 0z"/>
<path d="M320 395 c-5 -14 -15 -25 -22 -25 -9 0 -8 3 2 10 8 5 10 10 4 10 -19
0 -35 -27 -39 -64 -4 -51 23 -66 125 -66 90 0 117 14 112 57 -2 12 1 23 7 23
14 0 -8 38 -27 45 -7 2 -10 0 -7 -5 3 -6 1 -10 -5 -10 -6 0 -13 7 -17 15 -5
14 -7 14 -23 0 -17 -15 -19 -15 -23 2 -4 16 -5 16 -6 1 0 -10 -4 -18 -7 -18
-4 0 -13 8 -21 18 -9 12 -13 13 -11 3 2 -8 -6 -17 -17 -19 -18 -4 -18 -3 -5
14 12 15 13 16 1 9 -11 -6 -13 -4 -8 8 3 10 4 17 1 17 -2 0 -9 -11 -14 -25z
m102 -52 c10 -9 18 -11 18 -5 0 5 9 8 20 5 11 -3 17 -9 14 -14 -3 -5 1 -9 8
-9 11 0 11 -2 0 -9 -7 -4 -24 -6 -38 -3 -14 2 -24 0 -24 -7 0 -12 -42 -15 -54
-3 -4 4 -15 7 -24 8 -45 3 -52 5 -52 15 0 7 12 9 30 7 23 -4 30 -1 26 9 -3 8
-2 11 3 8 5 -3 12 -1 16 5 9 15 36 12 57 -7z"/>
<path d="M372 323 c2 -10 10 -18 18 -18 8 0 16 8 18 18 2 12 -3 17 -18 17 -15
0 -20 -5 -18 -17z"/>
<path d="M1480 350 c0 -5 5 -10 10 -10 6 0 10 5 10 10 0 6 -4 10 -10 10 -5 0
-10 -4 -10 -10z"/>
<path d="M1730 332 c0 -26 -2 -28 -32 -24 -22 3 -35 0 -45 -14 -31 -43 -9 -78
52 -80 l45 -2 0 74 c0 43 -4 74 -10 74 -5 0 -10 -13 -10 -28z m-10 -47 c20
-25 8 -50 -25 -50 -21 0 -31 5 -33 18 -4 21 14 47 33 47 7 0 18 -7 25 -15z"/>
<path d="M1777 354 c-8 -8 1 -24 14 -24 5 0 9 7 9 15 0 15 -12 20 -23 9z"/>
<path d="M840 326 c0 -8 -6 -17 -12 -19 -10 -4 -10 -6 0 -6 6 -1 12 -13 12
-27 0 -14 5 -34 10 -45 11 -20 40 -27 40 -9 0 6 -7 10 -15 10 -23 0 -20 67 3
73 16 4 16 5 0 6 -10 0 -18 8 -18 16 0 8 -4 15 -10 15 -5 0 -10 -6 -10 -14z"/>
<path d="M1161 328 c0 -10 -7 -18 -13 -18 -10 0 -10 -2 -1 -8 6 -4 13 -25 15
-47 3 -34 7 -40 28 -43 l25 -2 -22 16 c-27 20 -30 59 -5 73 15 9 15 10 0 11
-9 0 -19 8 -21 18 -4 16 -5 16 -6 0z"/>
<path d="M618 310 c-10 -11 -14 -20 -9 -20 5 0 7 -9 4 -20 -3 -11 -9 -20 -13
-20 -5 0 -6 -9 -3 -20 6 -24 23 -27 23 -4 0 9 6 14 13 11 6 -2 11 -10 10 -16
-5 -18 14 -13 22 7 5 9 7 27 6 40 -1 12 2 22 7 22 6 0 8 10 5 21 -5 18 -7 19
-15 5 -11 -20 -26 -21 -30 -1 -2 13 -6 12 -20 -5z m40 -37 c-5 -25 -28 -28
-28 -4 0 12 6 21 16 21 9 0 14 -7 12 -17z"/>
<path d="M724 295 c-8 -21 4 -35 31 -35 13 0 27 -5 31 -11 10 -16 -17 -29 -46
-22 -19 4 -22 3 -14 -6 6 -7 24 -11 40 -9 23 2 29 8 29 28 0 17 -7 26 -24 30
-35 8 -42 34 -7 28 15 -3 29 -1 32 3 3 5 -11 9 -31 9 -22 0 -38 -6 -41 -15z"/>
<path d="M914 285 c-15 -23 -15 -27 0 -50 13 -20 24 -25 56 -23 l40 1 0 47 0
47 -40 1 c-32 2 -43 -3 -56 -23z m69 -6 c15 -24 1 -49 -27 -49 -29 0 -44 33
-25 56 15 18 38 15 52 -7z"/>
<path d="M1040 258 c0 -59 18 -64 22 -5 3 36 6 42 26 41 12 0 22 3 22 7 0 5
-16 8 -35 7 -35 -1 -35 -1 -35 -50z"/>
<path d="M1230 276 c0 -52 39 -83 68 -54 9 9 12 9 12 0 0 -7 5 -12 10 -12 6 0
10 23 10 50 0 58 -17 68 -22 13 -3 -33 -6 -38 -28 -38 -22 0 -25 5 -28 38 -4
46 -22 49 -22 3z"/>
<path d="M1350 239 c0 -39 4 -69 10 -69 6 0 10 11 10 25 0 21 3 24 28 19 39
-8 69 26 56 64 -8 24 -15 27 -57 28 l-47 2 0 -69z m83 40 c15 -24 1 -49 -27
-49 -29 0 -44 33 -25 56 15 18 38 15 52 -7z"/>
<path d="M1480 260 c0 -27 5 -50 10 -50 6 0 10 23 10 50 0 28 -4 50 -10 50 -5
0 -10 -22 -10 -50z"/>
<path d="M1520 258 c0 -26 5 -48 10 -48 6 0 10 15 10 34 0 37 21 62 45 52 10
-3 15 -19 15 -46 0 -22 5 -40 10 -40 15 0 12 76 -3 89 -8 6 -30 10 -50 9 l-37
-1 0 -49z"/>
<path d="M1770 260 c0 -38 4 -50 15 -50 11 0 15 12 15 50 0 38 -4 50 -15 50
-11 0 -15 -12 -15 -50z"/>
<path d="M1832 298 c-16 -16 -15 -63 1 -76 7 -6 32 -10 55 -9 l42 1 0 46 0 46
-43 2 c-24 1 -49 -4 -55 -10z m66 -14 c16 -29 2 -55 -27 -52 -19 2 -27 10 -29
27 -6 37 38 56 56 25z"/>
</g>
</svg>
