<?xml version="1.0" standalone="no"?>
<!DOCTYPE svg PUBLIC "-//W3C//DTD SVG 20010904//EN"
 "http://www.w3.org/TR/2001/REC-SVG-20010904/DTD/svg10.dtd">
<svg version="1.0" xmlns="http://www.w3.org/2000/svg"
 width="1200.000000pt" height="463.000000pt" viewBox="0 0 1200.000000 463.000000"
 preserveAspectRatio="xMidYMid meet">

<g transform="translate(0.000000,463.000000) scale(0.100000,-0.100000)"
fill="#000000" stroke="none">
<path d="M9985 4603 c-286 -25 -607 -116 -825 -235 -280 -152 -524 -398 -656
-660 -127 -252 -185 -522 -185 -864 0 -354 56 -611 192 -874 238 -460 697
-764 1308 -867 149 -25 513 -25 662 0 848 142 1381 661 1484 1443 17 134 20
439 5 564 -26 206 -77 388 -156 559 -142 304 -409 569 -734 729 -314 154 -749
235 -1095 205z m325 -517 c455 -69 787 -371 900 -820 70 -276 65 -628 -11
-889 -68 -231 -199 -428 -372 -560 -401 -306 -980 -301 -1370 13 -200 160
-323 372 -385 665 -24 108 -26 142 -26 345 -1 235 8 314 55 472 87 296 272
526 529 657 219 112 449 151 680 117z"/>
<path d="M20 2419 c0 -1183 4 -2149 8 -2147 4 2 157 108 340 236 l332 233 0
1915 0 1914 -340 0 -340 0 0 -2151z"/>
<path d="M1470 4566 c0 -3 27 -64 60 -137 l60 -132 0 -1464 c0 -806 4 -1463 8
-1461 5 2 162 111 350 243 l342 240 0 427 0 428 248 0 c493 0 736 -33 927
-125 185 -88 275 -230 275 -430 0 -245 -131 -400 -397 -473 -98 -26 -99 -26
-542 -30 l-445 -3 -373 -262 -373 -262 792 -3 c527 -2 832 1 908 8 223 22 472
85 614 157 323 163 494 424 513 784 20 382 -140 661 -468 819 -102 49 -254 89
-369 97 l-85 6 92 23 c210 51 384 193 477 387 48 101 66 175 73 300 7 128 -7
220 -48 325 -109 276 -394 485 -723 531 -75 11 -1916 17 -1916 7z m1690 -537
c188 -30 295 -142 315 -330 22 -209 -104 -389 -332 -475 -129 -49 -181 -54
-529 -54 l-324 0 0 435 0 435 403 0 c233 0 429 -5 467 -11z"/>
<path d="M4784 4538 c8 -18 36 -80 62 -138 l49 -105 5 -1461 5 -1461 343 240
342 240 0 1095 0 1094 333 -5 c282 -4 346 -8 427 -25 525 -111 827 -427 900
-942 16 -112 13 -372 -5 -497 -69 -460 -334 -768 -760 -881 -149 -40 -209 -44
-521 -43 l-302 2 -373 -262 c-206 -144 -376 -263 -379 -266 -2 -2 358 -2 800
-1 781 4 808 4 915 26 551 109 958 401 1179 848 216 435 244 1043 70 1512
-220 595 -737 981 -1405 1052 -54 5 -441 10 -897 10 l-802 0 14 -32z"/>
<path d="M440 305 c-217 -152 -396 -278 -399 -280 -2 -3 2676 -5 5952 -5
l5957 0 0 280 0 280 -5558 0 -5559 0 -393 -275z"/>
</g>
</svg>
