<?xml version="1.0" standalone="no"?>
<!DOCTYPE svg PUBLIC "-//W3C//DTD SVG 20010904//EN"
 "http://www.w3.org/TR/2001/REC-SVG-20010904/DTD/svg10.dtd">
<svg version="1.0" xmlns="http://www.w3.org/2000/svg"
 width="1103.000000pt" height="1182.000000pt" viewBox="0 0 1103.000000 1182.000000"
 preserveAspectRatio="xMidYMid meet">
<metadata>
Created by potrace 1.16, written by Peter Selinger 2001-2019
</metadata>
<g transform="translate(0.000000,1182.000000) scale(0.100000,-0.100000)"
fill="#000000" stroke="none">
<path d="M5630 11814 c-372 -25 -619 -55 -890 -110 -2204 -440 -3983 -2117
-4550 -4288 -123 -472 -178 -880 -187 -1391 -8 -430 12 -708 77 -1100 289
-1736 1350 -3259 2885 -4140 748 -430 1551 -681 2435 -761 384 -35 940 -20
1335 37 1101 157 2116 610 2965 1322 409 343 792 766 1092 1207 100 147 238
372 238 389 0 8 -303 11 -1203 11 l-1204 0 -59 -54 c-102 -92 -284 -234 -409
-319 -552 -374 -1131 -591 -1805 -674 -204 -25 -686 -25 -890 0 -477 59 -893
181 -1305 382 -930 455 -1659 1269 -2007 2240 -394 1099 -287 2314 292 3324
309 538 745 1004 1260 1345 535 354 1071 553 1738 643 182 25 752 25 934 0
840 -113 1530 -421 2155 -959 l101 -88 1201 0 c979 0 1201 2 1201 13 0 7 -33
67 -73 133 -808 1321 -2074 2265 -3559 2653 -298 78 -671 142 -1003 171 -122
11 -665 21 -765 14z m201 -1186 l177 -388 -74 0 -75 0 -36 80 c-34 75 -38 81
-62 76 -14 -3 -90 -8 -168 -12 l-142 -6 -28 -84 -27 -83 -51 -6 c-105 -14
-109 -50 35 400 l127 400 54 6 c30 3 63 6 74 5 15 -1 54 -76 196 -388z m810
354 c84 -22 169 -74 225 -136 l44 -48 -52 -39 c-28 -22 -53 -39 -55 -39 -1 0
-22 19 -45 43 -149 149 -392 119 -474 -57 -32 -69 -34 -186 -3 -251 74 -156
286 -202 445 -96 l30 20 37 -49 c20 -27 37 -53 37 -58 0 -11 -98 -69 -148 -86
-109 -39 -236 -28 -352 30 -197 99 -273 342 -173 552 63 133 219 228 378 230
22 1 70 -7 106 -16z m-1599 -94 c8 -35 14 -64 13 -65 -1 -2 -53 -14 -115 -28
-62 -14 -115 -27 -118 -30 -9 -9 21 -137 34 -142 7 -2 60 5 118 18 58 12 109
20 112 16 3 -3 10 -25 15 -49 5 -24 12 -50 15 -59 3 -13 -16 -20 -108 -39 -62
-13 -117 -26 -122 -31 -4 -4 8 -83 28 -175 20 -92 33 -171 29 -174 -8 -7 -125
-32 -128 -27 -4 4 -155 720 -157 746 -3 24 2 26 167 62 94 20 177 38 187 38
12 1 20 -15 30 -61z m2246 -64 c108 -31 199 -58 201 -60 5 -5 -19 -108 -28
-123 -5 -7 -28 -4 -71 9 -36 11 -67 16 -71 12 -4 -4 -46 -145 -94 -313 l-87
-306 -67 19 c-36 11 -67 21 -68 22 -1 1 38 141 87 311 49 170 87 312 85 315
-2 4 -29 13 -61 20 -31 8 -58 19 -61 26 -4 12 25 124 33 124 3 0 93 -25 202
-56z m-3179 -168 c38 -86 45 -77 -99 -136 -113 -47 -129 -56 -124 -73 9 -28
53 -127 57 -127 2 0 61 25 131 55 70 30 129 55 130 55 6 0 49 -120 45 -124 -2
-2 -59 -27 -126 -56 -68 -29 -123 -56 -123 -61 0 -12 70 -182 79 -192 4 -4 65
18 135 48 71 31 130 54 131 53 5 -5 53 -123 52 -124 -7 -6 -390 -164 -392
-162 -8 10 -306 721 -303 724 5 4 371 162 380 163 4 1 16 -19 27 -43z m3921
-89 c80 -36 134 -79 175 -139 113 -168 97 -381 -40 -527 -155 -166 -403 -175
-578 -21 -57 50 -113 159 -126 245 -29 195 96 392 289 457 78 26 205 19 280
-15z m-4471 -172 c17 -30 31 -57 31 -60 0 -3 -25 -19 -55 -36 -30 -17 -57 -34
-60 -38 -2 -4 61 -122 141 -262 80 -140 152 -266 160 -281 13 -26 13 -27 -41
-57 -30 -17 -58 -31 -63 -31 -4 0 -80 126 -167 279 l-160 280 -62 -35 -62 -35
-30 53 c-17 29 -30 58 -29 63 1 9 342 212 360 214 3 1 20 -24 37 -54z m5174
-242 c177 -124 224 -199 193 -307 -32 -111 -134 -185 -235 -172 l-48 6 -12
-87 c-6 -49 -16 -135 -22 -193 -7 -58 -13 -107 -15 -108 -6 -8 -124 79 -124
91 0 7 10 92 22 190 14 114 18 181 12 187 -6 6 -45 -40 -107 -130 l-97 -139
-55 37 c-30 20 -52 42 -50 49 8 24 438 633 447 633 5 0 46 -26 91 -57z m-5483
-336 c122 -176 220 -320 218 -321 -2 -1 -27 -19 -56 -40 -30 -20 -55 -36 -56
-34 -37 48 -437 631 -439 638 -3 13 84 81 100 77 7 -1 112 -145 233 -320z
m6040 -105 c0 -8 -18 -75 -40 -149 -22 -75 -40 -142 -40 -149 0 -10 46 2 154
40 l154 54 51 -52 52 -52 -241 -84 c-191 -66 -245 -88 -261 -109 -12 -14 -62
-69 -113 -121 l-93 -96 -51 47 -51 47 117 123 118 124 69 241 69 242 53 -46
c29 -25 53 -52 53 -60z m-6483 58 c134 -46 252 -177 289 -320 19 -75 13 -140
-19 -209 -21 -46 -120 -152 -233 -248 l-61 -52 -261 292 -261 292 27 29 c55
57 204 177 253 202 91 46 161 49 266 14z m-606 -558 c62 -32 115 -96 125 -149
4 -21 3 -59 -3 -84 l-9 -47 193 -37 c106 -21 193 -39 193 -42 0 -14 -88 -112
-101 -112 -9 -1 -94 15 -189 34 -121 24 -177 32 -184 25 -8 -8 -8 -13 0 -18 6
-4 65 -51 132 -106 l122 -98 -42 -52 c-23 -28 -43 -52 -44 -54 -1 -2 -580 464
-613 494 -6 5 151 189 187 219 76 64 147 72 233 27z m-268 -645 c94 -46 175
-130 208 -214 30 -77 36 -192 15 -266 -34 -116 -142 -236 -246 -273 -120 -42
-223 -35 -336 21 -87 43 -154 111 -197 203 -28 60 -32 77 -32 157 0 189 93
325 270 392 50 19 75 23 151 20 82 -3 99 -7 167 -40z m-656 -928 c-52 -27
-108 -89 -136 -148 -50 -108 -27 -245 56 -323 68 -65 200 -94 290 -64 97 32
162 113 183 229 11 58 3 117 -25 184 -9 20 -14 37 -13 38 9 7 109 55 115 55 5
0 20 -28 33 -62 21 -53 25 -79 25 -168 -1 -93 -4 -113 -29 -174 -39 -91 -117
-175 -202 -217 -188 -93 -446 -13 -541 168 -41 76 -54 130 -54 213 0 147 78
287 205 370 l61 40 31 -63 32 -62 -31 -16z m8167 -5108 c59 -63 118 -134 132
-157 57 -98 38 -209 -51 -299 -67 -67 -122 -89 -208 -83 -88 5 -120 30 -355
278 l-195 203 49 43 c27 24 52 43 55 44 4 0 86 -84 183 -187 211 -224 234
-243 292 -243 85 0 147 97 109 171 -10 18 -81 100 -159 182 -77 82 -163 173
-190 204 l-49 54 47 48 48 48 92 -96 c51 -53 141 -147 200 -210z m-6565 10
c-45 -120 -294 -738 -300 -746 -6 -5 -28 10 -58 39 l-50 49 21 51 c48 120 51
107 -38 189 -43 40 -98 91 -122 112 l-43 38 -80 -38 -80 -37 -52 49 -53 50
381 186 380 187 52 -52 c46 -46 51 -53 42 -77z m456 -321 c119 -81 169 -132
186 -188 24 -82 -17 -187 -97 -248 -33 -26 -45 -29 -110 -29 l-72 0 -6 -55
c-3 -30 -11 -113 -17 -185 -6 -71 -13 -136 -15 -143 -2 -8 -24 1 -66 29 l-63
42 18 190 c11 114 15 193 9 199 -5 5 -46 -47 -102 -132 -51 -77 -95 -140 -97
-140 -2 0 -28 16 -58 37 l-55 36 17 26 c170 261 416 631 420 631 2 0 51 -32
108 -70z m5379 -19 c84 -41 167 -130 215 -231 32 -68 36 -83 36 -160 0 -152
-43 -209 -272 -364 -57 -38 -104 -68 -107 -65 -12 14 -428 634 -432 643 -4 11
21 29 176 128 154 98 258 111 384 49z m-4894 -276 c28 -14 50 -28 50 -30 0 -3
-46 -103 -101 -222 -135 -290 -139 -299 -139 -338 0 -93 137 -149 206 -84 12
11 75 134 139 272 65 139 121 256 125 260 4 4 34 -5 68 -21 l61 -29 -103 -219
c-164 -350 -174 -367 -250 -407 -61 -32 -164 -30 -231 5 -134 71 -184 187
-137 321 38 105 235 517 249 517 8 0 36 -11 63 -25z m4244 -384 l298 -298 -57
-27 c-32 -14 -62 -26 -68 -26 -7 0 -39 27 -72 60 l-60 59 -153 -67 -152 -67 6
-90 6 -90 -67 -28 c-37 -16 -68 -27 -70 -25 -1 2 -10 165 -19 363 -9 198 -19
386 -22 418 l-6 57 64 29 c34 16 65 30 68 30 3 1 139 -133 304 -298z m-3644
122 c53 -14 60 -19 60 -42 0 -51 39 -574 43 -577 2 -2 82 106 178 241 95 135
179 245 187 245 18 0 122 -30 122 -36 0 -2 -108 -156 -241 -343 l-240 -339
-65 18 c-36 9 -66 19 -68 21 -3 4 -57 788 -56 817 0 16 8 15 80 -5z m2765
-230 c-54 -122 -84 -202 -78 -209 4 -7 93 -85 196 -175 104 -89 185 -165 180
-169 -4 -4 -39 -15 -76 -24 l-68 -16 -162 140 c-89 77 -165 140 -168 140 -4 0
13 -78 37 -172 23 -95 42 -173 41 -174 -6 -3 -132 -33 -134 -31 -4 4 -193 744
-193 755 0 8 129 47 135 40 1 -2 12 -43 24 -93 35 -145 41 -165 49 -165 4 0
38 72 77 160 l69 159 76 19 c41 10 77 17 79 16 2 -2 -36 -92 -84 -201z m-602
-20 c19 -193 60 -723 57 -727 -3 -2 -34 -7 -70 -10 l-65 -6 -193 251 c-107
138 -195 249 -197 247 -2 -2 7 -121 19 -265 l22 -261 -69 -7 c-37 -4 -69 -6
-71 -4 -5 6 -68 780 -64 784 1 2 32 6 68 10 l65 6 194 -251 c107 -138 196
-249 198 -246 2 2 -5 110 -17 241 -11 131 -20 248 -20 261 0 24 15 29 101 32
l36 2 6 -57z m-1059 26 c5 -5 226 -792 226 -804 0 -13 -131 0 -140 14 -4 8
-16 43 -25 80 -10 36 -20 69 -24 73 -5 5 -283 38 -326 38 -6 0 -28 -36 -50
-79 l-38 -80 -66 6 c-36 3 -68 8 -71 10 -2 2 80 174 184 381 l189 378 68 -7
c38 -3 71 -8 73 -10z"/>
<path d="M5586 10799 c-38 -108 -86 -272 -82 -276 8 -8 216 9 216 18 0 11
-110 252 -121 263 -5 6 -10 4 -13 -5z"/>
<path d="M7752 10434 c-96 -48 -152 -143 -152 -259 0 -83 21 -135 75 -189 102
-103 277 -102 380 0 108 109 113 293 9 398 -77 77 -213 99 -312 50z"/>
<path d="M8626 9956 c-26 -35 -46 -67 -46 -71 0 -21 99 -75 138 -75 69 0 99
101 45 152 -32 29 -74 58 -85 58 -4 0 -27 -29 -52 -64z"/>
<path d="M2584 9620 c-32 -17 -76 -46 -97 -65 l-37 -35 165 -185 c91 -101 170
-187 176 -190 14 -10 109 74 141 124 53 85 33 192 -54 287 -87 95 -189 117
-294 64z"/>
<path d="M2025 9053 c-25 -26 -45 -52 -45 -58 0 -12 128 -121 134 -114 81 95
96 150 51 194 -41 42 -86 35 -140 -22z"/>
<path d="M1670 8461 c-80 -26 -146 -88 -175 -164 -22 -57 -17 -155 10 -211 45
-93 152 -158 259 -158 156 0 266 110 266 267 0 156 -105 264 -265 271 -38 2
-81 0 -95 -5z"/>
<path d="M2558 2408 c-71 -34 -128 -66 -127 -72 1 -13 144 -146 156 -146 7 0
113 255 113 273 0 12 -10 8 -142 -55z"/>
<path d="M3216 2028 c-51 -82 -51 -80 28 -122 63 -33 81 -33 117 3 33 33 38
74 14 109 -14 19 -96 82 -109 82 -2 0 -25 -33 -50 -72z"/>
<path d="M8520 2091 c-42 -8 -117 -45 -155 -75 l-27 -22 137 -205 c76 -112
142 -208 146 -213 11 -13 107 54 157 108 83 90 57 235 -62 344 -63 58 -123 77
-196 63z"/>
<path d="M7785 1480 c4 -85 9 -156 10 -158 4 -5 200 88 200 95 0 4 -49 55
-108 113 l-109 105 7 -155z"/>
<path d="M5366 1121 c-36 -72 -66 -135 -66 -139 0 -9 211 -35 218 -27 4 4 -75
285 -82 292 -3 3 -34 -54 -70 -126z"/>
<path d="M8620 7180 l0 -1000 515 0 515 0 0 350 0 350 690 0 690 0 0 245 0
245 -690 0 -690 0 0 150 0 150 690 0 690 0 0 255 0 255 -1205 0 -1205 0 0
-1000z"/>
<path d="M6450 7279 c-256 -11 -1321 -39 -1475 -39 -237 0 -379 -41 -524 -153
-92 -71 -126 -103 -178 -169 -42 -55 -47 -58 -87 -58 -59 0 -188 -34 -265 -70
-195 -92 -357 -279 -423 -490 -20 -65 -23 -96 -23 -225 0 -157 16 -239 66
-337 19 -38 19 -38 -1 -77 -11 -22 -31 -78 -44 -124 -99 -341 29 -682 336
-895 73 -51 153 -82 273 -108 120 -25 108 -18 210 -138 143 -169 357 -266 584
-266 138 0 225 20 339 75 90 43 103 44 82 4 -21 -39 9 -19 41 28 32 46 42 51
968 511 515 255 1044 516 1176 579 312 148 368 177 438 226 69 48 139 143 179
240 25 62 28 81 28 186 0 100 -3 126 -26 187 l-25 71 25 63 c23 57 26 77 26
195 0 118 -3 138 -26 195 -33 83 -68 132 -140 201 -91 85 -160 120 -289 143
-52 10 -63 16 -90 51 -47 64 -123 124 -205 164 l-75 36 -340 1 c-187 1 -428
-2 -535 -7z m905 -82 c33 -15 81 -42 106 -60 50 -34 93 -87 81 -98 -4 -4 -117
-17 -252 -28 -135 -12 -308 -28 -385 -36 -77 -8 -201 -19 -275 -25 -74 -5
-202 -17 -285 -25 -372 -37 -567 -55 -661 -61 l-100 -7 -34 44 c-64 84 -135
151 -218 206 -46 30 -94 58 -105 62 -13 5 96 12 258 16 154 4 548 16 875 25
327 10 672 17 765 16 164 -1 172 -2 230 -29z m-2307 -42 c52 -10 113 -33 190
-72 123 -62 189 -120 272 -243 l41 -60 53 0 c76 0 191 -32 287 -80 74 -38 159
-94 167 -112 2 -3 17 -20 33 -37 71 -75 143 -212 173 -326 39 -156 27 -287
-42 -465 l-41 -104 29 -60 c48 -99 64 -177 64 -311 0 -171 -33 -278 -132 -425
-106 -158 -322 -279 -531 -296 l-78 -7 -67 -87 c-69 -90 -133 -143 -236 -195
-231 -116 -478 -107 -702 25 -93 56 -139 99 -210 195 l-59 80 -100 18 c-125
22 -193 45 -280 97 -103 61 -169 128 -231 232 -65 111 -81 150 -102 251 -31
150 -16 292 48 440 l35 81 -38 105 c-50 136 -65 216 -57 311 10 114 33 197 78
290 55 112 196 257 303 312 91 47 203 78 282 78 70 0 67 -3 139 97 25 34 68
83 97 109 57 51 216 133 307 157 73 20 212 21 308 2z m2732 -210 c132 -54 232
-152 281 -275 34 -85 38 -230 9 -320 -12 -38 -28 -74 -34 -79 -7 -6 -392 -128
-857 -271 -464 -143 -855 -264 -869 -269 l-25 -8 30 86 c28 81 30 95 30 241 0
135 -3 165 -23 230 -31 98 -59 151 -126 241 -61 82 -60 80 -113 126 -79 68
-107 87 -180 124 l-74 37 53 6 c29 3 154 15 278 26 375 34 655 60 860 80 107
10 260 24 340 30 80 7 147 14 150 17 13 13 227 -5 270 -22z m273 -782 c49 -96
48 -244 -3 -370 -26 -65 -44 -94 -94 -145 -69 -70 -26 -47 -766 -393 -179 -84
-460 -216 -625 -295 -164 -78 -323 -153 -352 -165 l-53 -24 39 52 c101 135
143 270 144 462 1 136 -5 171 -50 288 -15 37 -24 69 -22 71 5 6 1740 544 1756
545 7 1 19 -11 26 -26z"/>
<path d="M4895 6746 c-68 -31 -114 -118 -101 -190 13 -69 96 -136 168 -136 44
0 107 37 135 79 17 25 23 48 23 88 0 85 -40 141 -115 162 -51 14 -73 13 -110
-3z m131 -90 c52 -52 45 -119 -16 -151 -64 -33 -134 -5 -146 61 -20 105 87
165 162 90z"/>
<path d="M4080 6338 c-63 -32 -90 -77 -90 -148 0 -69 26 -114 85 -147 69 -39
139 -27 197 34 58 61 63 129 15 199 -56 83 -125 103 -207 62z m135 -71 c20
-16 28 -35 32 -68 7 -59 -22 -96 -83 -105 -36 -5 -45 -2 -73 22 -21 19 -34 42
-38 66 -5 33 -2 41 30 73 43 43 91 48 132 12z"/>
<path d="M5655 6236 c-81 -35 -123 -108 -110 -190 6 -30 18 -52 51 -83 70 -68
154 -70 224 -7 69 63 78 156 20 226 -51 62 -121 82 -185 54z m126 -85 c23 -23
29 -38 29 -71 0 -102 -139 -139 -186 -49 -53 103 76 201 157 120z"/>
<path d="M4814 5866 c-36 -17 -62 -38 -85 -72 -30 -43 -34 -57 -33 -110 1
-136 122 -236 246 -204 106 28 158 94 158 202 0 81 -28 131 -93 172 -65 40
-126 44 -193 12z m172 -77 c72 -67 71 -160 -2 -218 -106 -84 -256 25 -214 156
24 73 57 95 138 90 38 -3 59 -10 78 -28z"/>
<path d="M4010 5428 c-78 -53 -101 -137 -60 -218 43 -85 142 -114 224 -67 54
30 78 67 83 124 10 98 -56 174 -156 181 -46 3 -62 0 -91 -20z m147 -70 c37
-34 44 -69 23 -116 -35 -79 -142 -77 -176 4 -41 98 76 184 153 112z"/>
<path d="M5585 5327 c-17 -8 -45 -31 -63 -51 -28 -32 -32 -44 -32 -92 0 -101
53 -166 147 -180 91 -14 183 70 183 166 -1 53 -33 114 -73 139 -45 28 -122 36
-162 18z m119 -68 c32 -15 60 -72 51 -106 -3 -14 -19 -38 -35 -54 -41 -42 -91
-40 -136 5 -19 19 -34 42 -34 52 0 34 40 103 63 107 42 8 66 7 91 -4z"/>
<path d="M4774 4931 c-32 -14 -91 -88 -98 -122 -9 -46 12 -113 47 -149 39 -40
65 -50 126 -50 83 0 147 59 157 145 12 102 -51 176 -154 182 -32 1 -66 -1 -78
-6z m117 -74 c41 -27 61 -78 47 -119 -12 -34 -87 -73 -120 -63 -87 27 -103
149 -25 188 44 22 58 21 98 -6z"/>
<path d="M9427 5613 c-9 -15 -827 -1990 -827 -1997 0 -3 170 -5 378 -4 l377 3
45 133 45 132 370 0 371 0 44 -135 44 -135 378 0 c296 0 378 3 378 13 0 6
-185 459 -411 1005 l-412 992 -388 0 c-213 0 -390 -3 -392 -7z m506 -971 c59
-175 107 -321 107 -325 0 -4 -102 -7 -226 -7 -177 0 -225 3 -222 13 3 6 54
153 113 325 59 171 111 312 114 312 3 0 54 -143 114 -318z"/>
<path d="M6995 2706 c-28 -12 -33 -23 -69 -153 -29 -105 -37 -150 -32 -177 8
-42 10 -42 94 -16 35 11 68 20 72 20 5 0 14 -15 20 -34 11 -33 12 -34 43 -24
45 15 49 21 37 54 -9 23 -8 31 4 40 23 16 0 87 -25 79 -15 -5 -24 13 -55 110
-21 63 -43 115 -49 115 -5 -1 -23 -7 -40 -14z"/>
<path d="M4646 2533 c-32 -98 -59 -182 -60 -187 -1 -11 196 -78 205 -68 3 4
11 21 17 39 l11 32 -65 21 c-49 17 -64 26 -60 37 4 8 9 26 12 39 7 28 17 29
74 9 23 -8 48 -15 55 -15 13 0 38 57 30 69 -2 4 -31 16 -64 26 -58 17 -59 18
-49 45 l9 28 60 -20 c66 -22 75 -19 85 29 l6 31 -94 31 c-51 17 -98 31 -103
31 -6 0 -37 -80 -69 -177z"/>
<path d="M4939 2591 c-48 -48 -38 -98 38 -203 40 -55 40 -82 1 -86 -21 -3 -30
3 -43 28 -15 28 -20 31 -48 25 -46 -10 -50 -18 -33 -58 19 -48 68 -77 127 -77
57 0 94 26 108 76 13 46 2 78 -52 159 -26 38 -44 72 -41 77 10 17 43 7 61 -18
l19 -25 32 18 c17 10 32 23 32 30 0 7 -16 28 -35 48 -31 31 -42 35 -86 35 -43
0 -55 -5 -80 -29z"/>
<path d="M6660 2607 c-19 -7 -45 -27 -58 -47 -22 -31 -24 -43 -19 -110 6 -95
38 -181 80 -216 28 -23 37 -26 91 -22 51 4 63 9 87 36 37 41 45 99 25 185 -19
82 -48 142 -80 162 -33 22 -85 27 -126 12z m104 -131 c26 -53 34 -157 12 -175
-40 -33 -83 11 -105 109 -15 66 -13 88 10 111 18 18 23 19 42 6 12 -7 30 -30
41 -51z"/>
<path d="M5160 2556 c0 -13 -3 -31 -6 -40 -4 -11 4 -17 30 -21 30 -6 35 -11
31 -29 -3 -11 -16 -80 -29 -153 l-23 -131 30 -6 c49 -10 55 -7 61 27 3 17 15
85 27 150 l22 119 33 -7 c30 -5 34 -3 40 19 13 53 5 59 -96 78 -122 22 -120
22 -120 -6z"/>
<path d="M6363 2541 c-17 -11 -37 -29 -42 -40 -16 -30 -13 -113 5 -139 18 -26
65 -52 93 -52 20 0 20 0 0 -57 -10 -31 -19 -62 -19 -69 0 -14 61 -38 71 -27 4
5 26 66 49 137 47 146 47 177 1 228 -36 41 -109 50 -158 19z"/>
<path d="M5391 2423 c-22 -212 -24 -270 -13 -277 5 -3 52 -7 104 -9 79 -2 98
1 128 19 53 31 84 95 84 174 0 116 -59 182 -174 195 -30 3 -69 8 -86 11 l-31
4 -12 -117z m172 5 c34 -18 50 -55 45 -108 -7 -72 -36 -100 -101 -100 l-49 0
6 98 c10 132 11 135 49 126 18 -3 40 -10 50 -16z"/>
<path d="M6083 2510 c-19 -8 -53 -56 -53 -76 0 -4 17 -4 39 -1 l39 5 6 -47 c3
-25 8 -97 12 -158 l7 -113 41 6 c23 4 42 7 42 8 1 1 -5 75 -12 166 -7 91 -13
177 -14 193 0 25 -3 27 -42 26 -24 0 -53 -4 -65 -9z"/>
</g>
</svg>
