<?xml version="1.0" standalone="no"?>
<!DOCTYPE svg PUBLIC "-//W3C//DTD SVG 20010904//EN"
 "http://www.w3.org/TR/2001/REC-SVG-20010904/DTD/svg10.dtd">
<svg version="1.0" xmlns="http://www.w3.org/2000/svg"
 width="1310.000000pt" height="500.000000pt" viewBox="0 0 1310.000000 500.000000"
 preserveAspectRatio="xMidYMid meet">
<metadata>
Created by potrace 1.16, written by Peter Selinger 2001-2019
</metadata>
<g transform="translate(0.000000,500.000000) scale(0.100000,-0.100000)"
fill="#000000" stroke="none">
<path d="M2910 4991 c0 -7 -5 -9 -12 -5 -9 5 -9 2 1 -9 7 -9 10 -17 5 -17 -4
0 -3 -5 4 -12 7 -7 12 -21 12 -32 0 -17 -2 -18 -10 -6 -5 8 -10 10 -10 5 0 -6
5 -16 12 -23 9 -9 9 -12 0 -12 -7 0 -12 -5 -12 -11 0 -5 4 -8 9 -5 5 3 11 -8
13 -24 3 -17 1 -30 -3 -30 -9 0 -5 -42 5 -58 4 -7 3 -12 -3 -12 -7 0 -7 -8 1
-25 7 -16 8 -29 1 -37 -12 -16 -3 -52 14 -55 6 -1 70 -11 141 -22 345 -53 636
-143 937 -291 299 -146 566 -348 737 -557 32 -39 38 -41 38 -10 1 35 34 99 71
136 80 80 215 100 319 49 30 -15 56 -25 59 -23 10 10 -121 168 -229 275 -375
375 -919 643 -1545 759 -234 44 -555 74 -555 52z"/>
<path d="M5306 3801 c62 -124 -14 -298 -151 -344 -86 -30 -196 -16 -264 32
-42 31 -39 12 7 -34 57 -58 112 -79 207 -79 123 1 205 49 251 149 42 89 26
222 -33 287 -24 27 -33 22 -17 -11z"/>
<path d="M13000 3475 l0 -305 50 0 50 0 0 305 0 305 -50 0 -50 0 0 -305z"/>
<path d="M12421 3748 c-8 -22 -57 -159 -167 -466 l-43 -123 57 3 57 3 21 60
21 60 121 3 120 3 21 -56 c12 -31 21 -60 21 -65 0 -6 25 -10 55 -10 39 0 55 4
55 13 0 8 -47 144 -103 303 l-104 289 -62 3 c-56 3 -62 1 -70 -20z m113 -241
c21 -61 41 -118 44 -124 3 -10 -19 -13 -88 -13 -69 0 -91 3 -88 13 3 6 22 63
43 125 22 61 42 112 45 112 3 0 23 -51 44 -113z"/>
<path d="M7090 3342 l0 -417 -64 61 c-76 72 -209 145 -323 176 -103 27 -286
29 -388 3 -143 -36 -293 -122 -385 -221 -181 -194 -271 -491 -240 -793 43
-432 289 -731 664 -807 153 -31 362 -7 491 58 72 37 165 109 205 160 l40 50 0
-126 0 -126 235 0 235 0 0 1200 0 1200 -235 0 -235 0 0 -418z m-357 -577 c174
-45 299 -176 342 -357 18 -75 19 -216 4 -290 -18 -86 -62 -169 -121 -234 -98
-105 -209 -149 -363 -142 -80 3 -101 8 -161 38 -174 85 -277 265 -277 485 0
163 45 279 147 380 116 116 275 160 429 120z"/>
<path d="M8680 3184 c-336 -39 -570 -193 -705 -467 -54 -111 -82 -216 -95
-357 -36 -417 138 -767 462 -929 135 -68 230 -91 393 -98 328 -13 591 105 761
342 41 58 104 182 119 233 l6 22 -248 0 -249 0 -22 -39 c-73 -130 -246 -201
-412 -171 -187 34 -308 163 -344 368 l-5 32 654 0 654 0 7 36 c13 72 -3 334
-25 412 -93 320 -316 528 -641 597 -69 14 -252 26 -310 19z m160 -385 c185
-29 321 -159 343 -326 l5 -43 -419 0 c-479 0 -435 -11 -398 98 22 67 74 142
126 186 59 49 169 90 258 95 11 0 49 -4 85 -10z"/>
<path d="M10581 3180 c-277 -38 -491 -199 -615 -460 -60 -128 -85 -235 -93
-397 -22 -481 200 -840 597 -965 64 -20 96 -23 220 -23 124 0 156 3 220 23
119 38 207 89 292 172 l78 75 0 -122 0 -123 230 0 230 0 0 900 0 900 -230 0
-230 0 0 -121 0 -121 -75 70 c-161 151 -397 223 -624 192z m321 -411 c169 -36
300 -163 354 -344 13 -42 18 -93 18 -170 0 -134 -24 -223 -85 -314 -50 -75
-104 -120 -195 -163 -128 -60 -303 -49 -422 26 -178 112 -268 360 -217 599 54
257 296 419 547 366z"/>
<path d="M1445 3159 c-204 -25 -382 -115 -521 -262 -166 -174 -237 -365 -238
-642 -1 -220 36 -366 136 -532 102 -171 293 -308 503 -364 120 -32 312 -37
435 -11 199 41 332 112 465 247 182 184 266 423 252 715 -20 402 -240 699
-602 813 -134 42 -281 54 -430 36z m280 -274 c112 -28 197 -78 272 -159 115
-123 161 -240 170 -437 4 -85 1 -137 -11 -200 -58 -295 -291 -489 -589 -489
-275 0 -481 164 -554 440 -27 102 -24 331 5 435 61 212 209 361 408 409 79 19
226 20 299 1z"/>
<path d="M3570 3156 c-143 -30 -252 -90 -348 -190 l-62 -64 0 119 0 119 -150
0 -150 0 0 -890 0 -890 150 0 150 0 1 513 c0 281 2 526 4 542 19 150 34 199
90 285 78 122 184 181 365 205 54 7 170 -8 237 -31 133 -45 238 -168 279 -325
15 -55 18 -141 21 -626 l5 -563 144 0 144 0 0 589 c0 635 -2 667 -54 804 -71
188 -243 338 -451 393 -83 21 -293 27 -375 10z"/>
<path d="M4900 2260 l0 -900 230 0 230 0 0 900 0 900 -230 0 -230 0 0 -900z"/>
<path d="M0 2250 l0 -890 150 0 150 0 0 890 0 890 -150 0 -150 0 0 -890z"/>
<path d="M1620 581 c-53 -17 -108 -51 -138 -86 -53 -59 -65 -93 -70 -186 -4
-72 -1 -93 18 -137 27 -63 99 -132 162 -156 59 -23 186 -19 240 8 90 44 158
148 158 244 l0 52 -160 0 -160 0 0 -40 0 -40 105 0 c117 0 118 -1 82 -65 -40
-72 -148 -106 -230 -71 -124 51 -156 242 -57 337 78 74 216 71 266 -6 14 -22
24 -25 75 -25 70 0 74 9 26 72 -48 63 -130 102 -221 105 -39 1 -82 -1 -96 -6z"/>
<path d="M3229 574 c-60 -18 -133 -83 -167 -148 -22 -43 -26 -64 -26 -131 0
-130 47 -210 156 -264 81 -41 186 -44 263 -7 96 44 165 153 165 258 l0 38
-165 0 -165 0 0 -40 0 -40 109 0 110 0 -10 -32 c-12 -42 -64 -95 -107 -109
-51 -17 -125 -6 -171 24 -116 77 -105 289 19 352 72 36 162 23 214 -31 30 -31
38 -34 91 -34 63 0 65 4 23 65 -67 97 -211 139 -339 99z"/>
<path d="M6670 581 c-152 -49 -235 -183 -210 -338 17 -102 73 -177 164 -219
68 -32 189 -33 256 -3 67 30 140 108 140 149 0 6 -23 10 -56 10 -49 0 -58 -3
-81 -30 -14 -17 -38 -37 -54 -45 -40 -21 -122 -19 -169 5 -113 58 -135 237
-41 331 74 74 182 78 252 8 36 -36 43 -39 94 -39 66 0 69 10 22 72 -48 63
-130 102 -221 105 -39 1 -82 -1 -96 -6z"/>
<path d="M10740 581 c-93 -30 -167 -98 -194 -179 -23 -66 -20 -176 5 -232 27
-60 83 -117 144 -146 67 -32 188 -33 255 -3 67 30 140 108 140 149 0 6 -24 10
-58 10 -53 0 -59 -2 -75 -29 -37 -63 -155 -82 -231 -37 -107 63 -127 237 -37
327 74 74 187 78 253 8 35 -36 41 -39 93 -39 41 0 55 4 55 14 0 28 -66 99
-119 129 -44 25 -67 31 -130 33 -42 2 -87 0 -101 -5z"/>
<path d="M0 290 l0 -290 160 0 160 0 0 45 0 45 -110 0 -110 0 0 80 0 80 100 0
100 0 0 45 0 45 -100 0 -100 0 0 80 0 80 110 0 110 0 0 40 0 40 -160 0 -160 0
0 -290z"/>
<path d="M640 290 l0 -290 50 0 50 0 0 208 1 207 136 -208 136 -207 53 0 54 0
0 290 0 290 -55 0 -55 0 0 -202 0 -203 -135 203 -135 202 -50 0 -50 0 0 -290z"/>
<path d="M2352 296 c-56 -156 -102 -287 -102 -290 0 -3 24 -6 53 -6 l54 0 18
60 18 60 118 0 117 0 19 -57 20 -58 56 -3 56 -3 -43 123 c-24 68 -71 197 -103
288 l-59 165 -60 3 -61 3 -101 -285z m207 22 l40 -118 -84 0 c-47 0 -85 4 -85
9 0 5 14 49 31 96 43 124 49 138 53 134 3 -2 22 -57 45 -121z"/>
<path d="M3910 290 l0 -290 160 0 160 0 0 45 0 45 -110 0 -110 0 0 80 0 80
100 0 100 0 0 45 0 45 -100 0 -100 0 0 80 0 80 110 0 110 0 0 40 0 40 -160 0
-160 0 0 -290z"/>
<path d="M5100 290 l0 -290 160 0 160 0 0 45 0 45 -110 0 -110 0 0 80 0 80
100 0 100 0 0 45 0 45 -100 0 -100 0 0 80 0 80 110 0 110 0 0 40 0 40 -160 0
-160 0 0 -290z"/>
<path d="M5801 436 l91 -145 -81 -129 c-107 -171 -105 -162 -38 -162 l55 0 57
100 c31 55 58 100 60 100 2 0 31 -45 65 -100 l62 -100 55 0 c67 0 69 -10 -38
162 l-80 130 86 137 c47 76 85 141 85 144 0 4 -24 7 -54 7 l-54 0 -58 -100
c-32 -54 -60 -98 -62 -96 -2 2 -29 46 -61 97 l-57 94 -62 3 -62 3 91 -145z"/>
<path d="M7330 290 l0 -290 166 0 165 0 -3 42 -3 43 -112 3 -113 3 0 79 0 80
100 0 100 0 0 45 0 45 -100 0 -100 0 0 80 0 80 115 0 115 0 0 40 0 40 -165 0
-165 0 0 -290z"/>
<path d="M7970 290 l0 -290 151 0 150 0 -3 43 -3 42 -97 3 -98 3 0 244 0 245
-50 0 -50 0 0 -290z"/>
<path d="M8540 290 l0 -290 150 0 150 0 0 45 0 45 -95 0 -95 0 0 245 0 245
-55 0 -55 0 0 -290z"/>
<path d="M9120 290 l0 -290 160 0 160 0 0 45 0 45 -110 0 -110 0 0 80 0 80
100 0 100 0 0 45 0 45 -100 0 -100 0 0 80 0 80 110 0 110 0 0 40 0 40 -160 0
-160 0 0 -290z"/>
<path d="M9760 290 l0 -290 50 0 50 0 0 208 0 207 137 -208 137 -207 53 0 53
0 0 290 0 290 -55 0 -55 0 0 -202 0 -203 -135 203 -135 202 -50 0 -50 0 0
-290z"/>
<path d="M11400 290 l0 -290 165 0 165 0 0 45 0 45 -110 0 -110 0 0 80 0 80
95 0 95 0 0 45 0 45 -95 0 -95 0 0 80 0 80 110 0 110 0 0 40 0 40 -165 0 -165
0 0 -290z"/>
</g>
</svg>
