<?xml version="1.0" standalone="no"?>
<!DOCTYPE svg PUBLIC "-//W3C//DTD SVG 20010904//EN"
 "http://www.w3.org/TR/2001/REC-SVG-20010904/DTD/svg10.dtd">
<svg version="1.0" xmlns="http://www.w3.org/2000/svg"
 width="885.000000pt" height="317.000000pt" viewBox="0 0 885.000000 317.000000"
 preserveAspectRatio="xMidYMid meet">

<g transform="translate(0.000000,317.000000) scale(0.100000,-0.100000)"
fill="#000000" stroke="none">
<path d="M3365 2820 c-11 -5 -35 -9 -53 -9 -96 -2 -437 -97 -544 -152 -90 -46
-145 -121 -167 -231 -22 -102 17 -142 129 -135 98 6 210 44 275 92 49 37 169
143 265 233 l35 34 -75 -5 -75 -6 87 42 c79 38 128 69 86 54 -10 -4 -18 -3
-18 2 0 4 15 13 33 19 29 10 27 10 -23 6 l-55 -5 55 21 c30 12 61 23 68 25 13
5 17 25 5 24 -5 0 -17 -4 -28 -9z"/>
<path d="M4357 2554 c-2 -2 -59 -15 -128 -29 -68 -14 -151 -32 -184 -40 -154
-36 -323 -77 -350 -86 -80 -24 -538 -147 -595 -159 -19 -4 -78 -17 -130 -29
-249 -55 -433 -76 -675 -75 -195 1 -298 13 -347 42 -26 15 -26 17 -12 50 18
43 18 52 -1 52 -8 0 -15 5 -15 10 0 6 -11 10 -25 10 -16 0 -51 -24 -104 -71
-108 -96 -162 -167 -168 -222 -5 -43 -4 -44 58 -101 65 -59 161 -126 253 -176
83 -44 318 -147 376 -164 183 -54 499 -11 794 110 123 50 298 140 452 232 56
33 162 90 235 127 74 37 181 99 239 138 58 39 141 93 185 120 l80 48 -45 -6
c-40 -5 -74 -12 -170 -31 -54 -11 -2 15 90 46 141 48 161 63 45 35 -138 -33
-123 -14 38 50 64 26 120 51 122 56 3 4 -11 1 -31 -7 -20 -8 -41 -13 -46 -12
-11 4 115 68 132 68 6 0 10 4 10 9 0 8 -75 12 -83 5z"/>
<path d="M590 1748 c-5 -13 -40 -140 -76 -283 -67 -262 -116 -451 -173 -667
-17 -65 -31 -120 -31 -123 0 -3 58 -5 129 -5 l129 0 11 33 c5 17 47 176 91
352 101 394 109 425 120 425 4 0 5 -182 2 -405 l-5 -405 119 0 119 0 204 405
c113 222 207 403 209 401 2 -2 -42 -182 -97 -400 -56 -217 -101 -398 -101
-401 0 -3 59 -5 130 -5 96 0 132 3 134 12 2 7 43 164 90 348 47 184 106 412
130 505 24 94 47 184 50 201 l7 32 -211 -2 -212 -1 -166 -327 c-92 -179 -169
-325 -170 -323 -2 2 -5 149 -5 327 l-2 323 -208 3 c-207 2 -207 2 -217 -20z"/>
<path d="M5956 1758 c-2 -7 -16 -58 -30 -113 -14 -55 -39 -149 -55 -210 -60
-227 -191 -742 -191 -754 0 -8 38 -11 142 -9 l142 3 22 85 c32 123 117 455
175 680 28 107 57 218 64 245 7 28 15 57 16 64 5 21 -279 30 -285 9z"/>
<path d="M2113 1465 c-82 -19 -135 -47 -196 -103 -40 -38 -77 -93 -77 -115 0
-4 77 -15 219 -32 29 -4 41 2 82 39 35 32 59 45 90 49 93 12 148 -19 133 -77
-8 -34 -38 -49 -144 -70 -154 -32 -321 -76 -366 -97 -116 -55 -184 -223 -128
-319 25 -45 95 -80 172 -87 99 -9 240 29 324 88 14 11 29 19 31 19 3 0 7 -19
9 -42 l3 -43 136 -3 136 -3 6 98 c5 74 17 136 50 249 51 174 62 234 52 305 -9
64 -48 111 -113 134 -66 24 -332 30 -419 10z m198 -453 c-29 -98 -84 -161
-162 -187 -58 -20 -110 -8 -135 30 -24 36 8 90 74 125 31 15 215 68 224 63 3
-2 3 -16 -1 -31z"/>
<path d="M3335 1464 c-53 -18 -91 -40 -141 -81 -57 -46 -65 -43 -48 20 7 28
14 53 14 55 0 1 -60 2 -134 2 l-133 0 -12 -42 c-6 -24 -26 -101 -45 -173 -19
-71 -57 -222 -86 -335 -28 -113 -53 -213 -56 -222 -5 -17 6 -18 140 -18 129 0
145 2 150 18 2 9 25 98 50 198 25 100 53 201 61 224 40 113 142 173 206 121
19 -15 22 -27 21 -75 -1 -31 -10 -87 -21 -124 -23 -76 -91 -343 -91 -355 0 -4
64 -6 142 -5 l143 3 13 40 c7 22 38 137 68 255 88 342 85 438 -16 487 -53 26
-162 30 -225 7z"/>
<path d="M4059 1465 c-137 -50 -244 -166 -290 -315 -57 -184 -34 -338 59 -407
84 -62 222 -52 332 22 29 19 55 35 60 35 7 0 -6 -61 -30 -145 -16 -53 -76
-111 -123 -120 -64 -12 -106 1 -124 40 -18 37 -7 34 -181 57 -107 14 -112 11
-119 -56 -8 -65 4 -112 38 -151 51 -58 100 -70 289 -70 219 0 292 21 387 108
86 79 115 142 178 392 24 94 62 242 86 330 58 222 68 263 61 269 -3 3 -63 6
-133 6 l-128 0 -10 -37 c-6 -21 -11 -44 -11 -50 0 -21 -10 -15 -59 36 -30 33
-59 53 -86 60 -53 14 -151 13 -196 -4z m196 -207 c37 -16 55 -57 55 -121 0
-104 -83 -222 -160 -227 -52 -4 -72 1 -95 25 -21 20 -25 34 -25 79 0 154 125
290 225 244z"/>
<path d="M5150 1473 c-156 -24 -245 -73 -306 -169 -19 -29 -34 -55 -34 -57 0
-2 26 -7 58 -11 31 -3 90 -10 131 -15 l74 -9 25 29 c13 17 36 36 51 43 72 37
175 27 187 -19 17 -67 -12 -83 -247 -133 -223 -48 -273 -68 -333 -132 -74 -79
-97 -203 -49 -269 26 -36 101 -71 166 -78 98 -10 254 32 324 87 31 24 42 19
41 -19 -2 -49 4 -51 143 -51 l129 0 0 56 c0 34 21 140 55 276 59 237 67 314
39 374 -20 42 -79 78 -152 93 -49 10 -246 13 -302 4z m137 -452 c-11 -51 -48
-120 -82 -150 -49 -43 -125 -66 -171 -51 -69 23 -66 100 5 145 20 12 70 32
111 45 41 12 86 25 100 30 40 13 43 11 37 -19z"/>
<path d="M6602 1469 c-118 -20 -241 -98 -283 -181 -11 -22 -19 -41 -17 -43 2
-2 59 -10 128 -18 l125 -14 47 42 c35 31 59 44 92 49 76 12 136 -14 136 -59 0
-49 -39 -67 -220 -105 -294 -60 -359 -94 -416 -215 -43 -91 -26 -187 40 -230
101 -66 307 -50 431 34 25 17 48 31 51 31 2 0 4 -10 4 -22 0 -13 3 -33 6 -45
6 -22 10 -23 140 -23 l134 0 0 68 c0 77 14 140 66 308 31 100 37 135 38 214 1
76 -3 101 -17 123 -29 44 -89 77 -158 87 -78 12 -255 11 -327 -1z m170 -454
c-5 -45 -49 -122 -85 -149 -18 -14 -57 -33 -86 -43 -52 -16 -55 -16 -90 3 -28
14 -37 26 -39 50 -6 60 67 114 198 144 30 7 62 16 70 21 24 13 35 4 32 -26z"/>
<path d="M7799 1466 c-44 -12 -138 -64 -166 -92 -24 -23 -32 -16 -22 18 20 71
24 69 -123 66 l-133 -3 -27 -105 c-29 -117 -79 -306 -132 -508 -20 -74 -36
-142 -36 -153 0 -19 7 -19 142 -17 l142 3 8 30 c56 224 112 424 128 455 23 46
83 90 121 90 14 0 38 -9 53 -21 36 -28 34 -66 -9 -223 -58 -212 -85 -315 -85
-326 0 -6 54 -10 144 -10 140 0 144 1 150 23 3 12 28 110 56 217 58 231 68
258 114 298 62 55 131 51 156 -8 12 -29 8 -50 -44 -248 -31 -120 -59 -232 -62
-250 l-7 -33 143 3 144 3 8 30 c12 46 76 288 104 395 29 111 39 203 30 254
-28 146 -245 170 -423 47 l-72 -50 -23 42 c-43 78 -153 107 -279 73z"/>
<path d="M272 543 c3 -17 91 -18 1646 -21 1637 -2 1642 -2 1642 18 0 20 -6 20
-1646 20 -1562 0 -1645 -1 -1642 -17z"/>
<path d="M4542 540 c3 -20 6 -20 2018 -20 1915 0 2015 1 2015 17 0 17 -102 18
-2018 21 -2018 2 -2018 2 -2015 -18z"/>
</g>
</svg>
