<?xml version="1.0" standalone="no"?>
<!DOCTYPE svg PUBLIC "-//W3C//DTD SVG 20010904//EN"
 "http://www.w3.org/TR/2001/REC-SVG-20010904/DTD/svg10.dtd">
<svg version="1.0" xmlns="http://www.w3.org/2000/svg"
 width="2432.000000pt" height="487.000000pt" viewBox="0 0 2432.000000 487.000000"
 preserveAspectRatio="xMidYMid meet">
<metadata>
Created by potrace 1.16, written by Peter Selinger 2001-2019
</metadata>
<g transform="translate(0.000000,487.000000) scale(0.100000,-0.100000)"
fill="#000000" stroke="none">
<path d="M700 4162 c-117 -31 -188 -86 -225 -177 -37 -88 -45 -177 -45 -511
l0 -324 55 0 c72 0 146 27 237 85 212 137 351 296 468 533 46 94 160 379 160
401 0 8 -89 11 -292 10 -242 0 -304 -3 -358 -17z"/>
<path d="M1490 3715 l0 -465 340 0 340 0 0 -105 0 -105 -340 0 -341 0 3 -1037
c4 -1151 -1 -1074 70 -1193 22 -37 49 -64 82 -85 l49 -30 1184 -3 1183 -2 0
1745 0 1745 -1285 0 -1285 0 0 -465z"/>
<path d="M6763 3273 l-103 -4 0 -888 0 -888 38 -7 c49 -8 1138 -8 1236 0 l76
7 -2 211 -3 211 -435 5 -435 5 -3 123 -3 122 331 0 330 0 0 220 0 220 -330 0
-330 0 0 110 0 110 428 0 c235 0 433 4 440 8 9 7 12 58 10 223 l-3 214 -570 0
c-313 1 -616 -1 -672 -2z"/>
<path d="M9277 3269 c-300 -32 -563 -220 -695 -497 -63 -134 -85 -250 -79
-417 9 -267 87 -455 254 -616 190 -184 426 -271 692 -255 247 16 443 93 609
242 l43 39 -136 150 c-75 83 -145 158 -154 168 -17 18 -21 17 -98 -36 -116
-79 -161 -92 -318 -92 -125 0 -132 1 -197 32 -127 60 -206 171 -229 324 -27
172 37 336 165 424 74 51 159 75 264 75 131 0 231 -34 345 -118 l49 -35 33 34
c76 79 275 301 275 307 0 4 -39 36 -85 71 -157 118 -310 179 -500 201 -100 11
-126 11 -238 -1z"/>
<path d="M11680 2945 l0 -335 -325 0 -325 0 0 330 0 330 -230 0 -230 0 0 -895
0 -895 235 0 235 0 0 345 0 345 320 0 320 0 0 -339 c0 -300 2 -340 16 -345 21
-8 290 -8 377 1 l67 6 0 893 0 894 -230 0 -230 0 0 -335z"/>
<path d="M12785 3268 c-3 -7 -4 -411 -3 -898 l3 -885 227 -3 228 -2 2 467 3
468 470 -467 470 -468 102 0 103 0 0 894 c0 806 -2 894 -16 900 -21 8 -305 8
-383 0 l-61 -7 0 -466 0 -466 -473 473 -472 472 -98 0 c-69 0 -99 -4 -102 -12z"/>
<path d="M15608 3270 c-203 -32 -375 -117 -508 -250 -219 -219 -306 -549 -230
-869 75 -312 317 -557 635 -642 106 -29 344 -32 449 -6 270 67 469 224 587
462 74 150 92 229 92 410 1 167 -11 234 -64 361 -107 258 -330 448 -601 514
-95 23 -276 33 -360 20z m314 -472 c105 -48 192 -150 229 -269 26 -82 26 -216
0 -298 -66 -211 -267 -337 -479 -302 -220 37 -362 215 -362 451 0 210 109 372
289 432 85 28 246 21 323 -14z"/>
<path d="M17070 2386 l0 -894 23 -6 c29 -8 361 -8 409 0 l38 7 2 417 3 417
210 -234 c116 -128 212 -233 215 -232 3 0 100 106 215 235 l210 234 3 -417 c2
-318 5 -419 15 -425 14 -9 365 -11 420 -2 l37 7 0 727 c0 400 -3 802 -7 893
l-6 167 -83 0 c-45 0 -93 -4 -106 -9 -13 -5 -174 -180 -358 -390 -184 -209
-338 -381 -341 -381 -4 0 -158 173 -343 384 -190 216 -347 386 -359 390 -12 3
-61 6 -109 6 l-88 0 0 -894z"/>
<path d="M19520 2380 l0 -900 229 0 228 0 5 350 c3 192 3 597 0 900 l-5 550
-228 0 -229 0 0 -900z"/>
<path d="M4572 3053 l3 -218 273 -3 272 -2 0 -669 0 -669 31 -6 c41 -8 342 -8
392 0 l37 7 0 631 c0 347 3 648 6 669 l7 37 273 0 274 0 0 220 0 220 -785 0
-785 0 2 -217z"/>
<path d="M20690 2381 l0 -888 53 -7 c69 -8 1088 -8 1205 0 l92 7 0 213 0 214
-414 0 c-227 0 -428 3 -445 6 l-31 6 0 669 0 669 -230 0 -230 0 0 -889z"/>
<path d="M22540 2381 l0 -889 31 -6 c41 -8 1164 -8 1252 1 l67 6 0 213 0 214
-439 0 -439 0 -4 57 c-3 32 -3 88 0 125 l5 68 328 0 329 0 0 220 0 220 -330 0
-330 0 0 110 0 110 440 0 440 0 0 220 0 220 -675 0 -675 0 0 -889z"/>
<path d="M430 2081 c0 -802 2 -972 15 -1036 26 -138 78 -223 175 -285 83 -53
154 -70 296 -70 68 0 124 2 124 5 0 3 -8 22 -19 43 -26 52 -58 156 -72 232 -8
47 -11 343 -10 1068 l2 1002 -255 0 -256 0 0 -959z"/>
</g>
</svg>
